#!OML:ASF E:\motion texture\Top Level 1\Subject 1\Session 1\male.ASF
:FULLY-SPECIFIED
:DEGREES
111
root 18.7457 17.6516 4.79464 118.989 -79.8031 -109.442
lowerback -1.20899 1.65469 7.94986
upperback -0.948179 1.99633 4.27183
thorax -0.176914 0.910283 -0.0178374
lowerneck -14.0705 -3.32663 -5.99445
upperneck 14.8566 -3.8957 3.38724
head 7.04833 -1.93246 1.6783
rclavicle -9.88954e-015 -1.47101e-014
rhumerus -29.0107 -16.2958 -70.0887
rradius 23.8602
rwrist 11.0707
rhand -14.9038 -30.2877
rfingers 7.12502
rthumb 11.2575 -59.9657
lclavicle -9.88954e-015 -1.47101e-014
lhumerus -52.564 26.9846 66.6729
lradius 15.8827
lwrist -40.1557
lhand -6.60984 18.8307
lfingers 7.12502
lthumb 19.246 47.8983
rfemur 1.71049 4.86569 32.7516
rtibia 20.1948
rfoot -14.4548 -8.83265
rtoes -10.2201
lfemur -33.1199 -0.404533 -4.32986
ltibia 15.5973
lfoot -5.68793 8.2786
ltoes -13.7804
112
root 18.5954 17.6347 4.8103 119.791 -79.6693 -110.444
lowerback -1.13592 1.71132 8.02733
upperback -0.926389 2.07991 4.20285
thorax -0.185394 0.952505 -0.131962
lowerneck -14.0761 -3.24294 -5.86038
upperneck 14.9662 -3.81235 3.37585
head 7.07759 -1.88719 1.66145
rclavicle -1.2921e-015 -6.75868e-015
rhumerus -28.4287 -15.623 -70.6044
rradius 24.8539
rwrist 9.9124
rhand -15.1614 -30.4291
rfingers 7.12502
rthumb 11.0091 -60.1204
lclavicle -1.2921e-015 -6.75868e-015
lhumerus -51.2379 26.2333 68.0424
lradius 16.0125
lwrist -39.7152
lhand -6.98646 18.8794
lfingers 7.12502
lthumb 18.8838 47.9827
rfemur 1.93715 5.00911 32.7481
rtibia 21.1343
rfoot -14.4697 -8.75122
rtoes -11.4409
lfemur -33.0174 -0.373309 -4.47812
ltibia 16.714
lfoot -5.35138 8.13082
ltoes -13.3113
113
root 18.4417 17.6189 4.82762 120.77 -79.5671 -111.629
lowerback -1.08143 1.7705 8.0706
upperback -0.90945 2.16635 4.11751
thorax -0.188482 0.996766 -0.243716
lowerneck -14.0802 -3.15312 -5.71367
upperneck 15.0918 -3.72646 3.37681
head 7.11176 -1.83905 1.64684
rclavicle 6.55989e-015 -1.47101e-014
rhumerus -27.8912 -14.9222 -71.1074
rradius 25.8624
rwrist 8.77055
rhand -15.4195 -30.5682
rfingers 7.12502
rthumb 10.7601 -60.2726
lclavicle 6.55989e-015 -1.47101e-014
lhumerus -49.904 25.4735 69.3405
lradius 16.1389
lwrist -39.32
lhand -7.32634 18.9514
lfingers 7.12502
lthumb 18.5569 48.0862
rfemur 2.12877 5.13959 32.6756
rtibia 22.1478
rfoot -14.4122 -8.63667
rtoes -12.6259
lfemur -32.8349 -0.380448 -4.6679
ltibia 17.698
lfoot -4.81264 8.01501
ltoes -12.9838
114
root 18.2854 17.6048 4.84619 121.859 -79.5368 -112.913
lowerback -1.05033 1.81962 8.04343
upperback -0.907579 2.23994 4.01052
thorax -0.196284 1.03513 -0.338922
lowerneck -14.0951 -3.05989 -5.5629
upperneck 15.2513 -3.64153 3.39911
head 7.15935 -1.78939 1.6383
rclavicle -9.59136e-015 -4.6118e-014
rhumerus -27.3929 -14.2011 -71.5955
rradius 26.8637
rwrist 7.68473
rhand -15.684 -30.6948
rfingers 7.12502
rthumb 10.505 -60.4123
lclavicle -9.59136e-015 -4.6118e-014
lhumerus -48.5622 24.7004 70.5736
lradius 16.2694
lwrist -38.9151
lhand -7.59471 18.9921
lfingers 7.12502
lthumb 18.2988 48.1514
rfemur 2.26504 5.25011 32.5023
rtibia 23.23
rfoot -14.262 -8.50674
rtoes -13.7417
lfemur -32.6119 -0.426917 -4.93933
ltibia 18.5366
lfoot -4.07216 7.88567
ltoes -12.7073
115
root 18.1271 17.5935 4.86582 123.181 -79.5944 -114.417
lowerback -1.03792 1.86203 7.92116
upperback -0.922476 2.30623 3.87731
thorax -0.213835 1.07045 -0.40875
lowerneck -14.0979 -2.975 -5.41858
upperneck 15.4199 -3.56986 3.43052
head 7.20889 -1.74581 1.63253
rclavicle -1.05853e-014 6.75868e-015
rhumerus -26.9316 -13.4709 -72.0586
rradius 27.8447
rwrist 6.69785
rhand -15.9305 -30.7807
rfingers 7.12502
rthumb 10.2672 -60.5102
lclavicle -1.05853e-014 6.75868e-015
lhumerus -47.2195 23.9264 71.7339
lradius 16.41
lwrist -38.5355
lhand -7.77393 19.0492
lfingers 7.12502
lthumb 18.1264 48.2246
rfemur 2.32275 5.34273 32.195
rtibia 24.398
rfoot -14.002 -8.35728
rtoes -14.7773
lfemur -32.3611 -0.498477 -5.31889
ltibia 19.2346
lfoot -3.19551 7.74379
ltoes -12.3186
116
root 17.9675 17.5857 4.88561 124.534 -79.7592 -115.938
lowerback -1.03964 1.88146 7.69729
upperback -0.954614 2.34389 3.72361
thorax -0.246221 1.09193 -0.444121
lowerneck -14.112 -2.89612 -5.29234
upperneck 15.6141 -3.50794 3.48763
head 7.27011 -1.70564 1.63701
rclavicle -5.86415e-015 -5.1684e-015
rhumerus -26.4982 -12.7445 -72.4953
rradius 28.7953
rwrist 5.8441
rhand -16.1536 -30.8627
rfingers 7.12502
rthumb 10.052 -60.6026
lclavicle -5.86415e-015 -5.1684e-015
lhumerus -45.866 23.1291 72.8457
lradius 16.5547
lwrist -38.1507
lhand -7.9058 19.1083
lfingers 7.12502
lthumb 17.9995 48.2954
rfemur 2.29471 5.36736 31.7562
rtibia 25.6506
rfoot -13.6099 -8.20024
rtoes -15.7399
lfemur -32.1028 -0.585947 -5.8251
ltibia 19.8331
lfoot -2.29298 7.5322
ltoes -11.673
117
root 17.8066 17.5819 4.90536 125.849 -80.0088 -117.421
lowerback -1.04686 1.88096 7.40259
upperback -0.998485 2.35651 3.55674
thorax -0.291475 1.10115 -0.454331
lowerneck -14.1307 -2.82775 -5.18591
upperneck 15.825 -3.46148 3.56821
head 7.33925 -1.67187 1.6508
rclavicle -4.69629e-015 -8.74653e-015
rhumerus -26.0943 -12.0297 -72.9027
rradius 29.715
rwrist 5.1251
rhand -16.3381 -30.9658
rfingers 7.12502
rthumb 9.87395 -60.7143
lclavicle -4.69629e-015 -8.74653e-015
lhumerus -44.4981 22.3107 73.9061
lradius 16.6968
lwrist -37.8011
lhand -8.0084 19.1937
lfingers 7.12502
lthumb 17.9008 48.3899
rfemur 2.17731 5.30283 31.2117
rtibia 27.0064
rfoot -13.072 -8.03048
rtoes -16.5603
lfemur -31.8271 -0.663597 -6.43812
ltibia 20.3829
lfoot -1.49287 7.23998
ltoes -10.6224
